<svg xmlns="http://www.w3.org/2000/svg" width="652" height="210" viewBox="0 0 652 210">
  <g id="그룹_2" data-name="그룹 2" transform="translate(-834 -327.284)">
    <path id="패스_5" data-name="패스 5" d="M11.653,57.48H67.082v8.679H24.789v4.29H67.082v8.48H24.789v4.19H67.082V91H11.653ZM41.9,20.568a48.924,48.924,0,0,1-.846,9.078,71.177,71.177,0,0,1-2.14,8.53,68.235,68.235,0,0,1-2.836,7.432Q34.541,49,33.247,51.394H19.216A54.357,54.357,0,0,0,26.48,36.23a48.988,48.988,0,0,0,2.09-13.169H2V12.287H41.9ZM78.824,36.43H67.38V51.993H55.737V7H67.38V24.658H78.824ZM165.7,23.062a26.419,26.419,0,0,1,8.11,1.2,19.932,19.932,0,0,1,6.419,3.342,15.583,15.583,0,0,1,4.229,5.188A14.677,14.677,0,0,1,186,39.523V50.3a16.215,16.215,0,0,1-1.542,7.233,15.3,15.3,0,0,1-4.229,5.287,18.545,18.545,0,0,1-6.419,3.242,28.643,28.643,0,0,1-8.11,1.1H147.19q-9.553,0-15.425-4.24T125.894,50.4q0-2.594.05-5.637t.249-5.637a17.217,17.217,0,0,1,1.741-6.185,16.641,16.641,0,0,1,3.931-5.088,18.87,18.87,0,0,1,5.971-3.492,22.409,22.409,0,0,1,7.862-1.3Zm-3.981,33.321a23.144,23.144,0,0,0,3.782-.349,12.721,12.721,0,0,0,3.881-1.3,8.843,8.843,0,0,0,2.985-2.544A6.82,6.82,0,0,0,173.561,48v-4.09q0-4.789-2.687-7.033t-8.061-2.245H149.18a24.291,24.291,0,0,0-3.632.249,8.794,8.794,0,0,0-2.985,1,6.044,6.044,0,0,0-2.239,2.245,11.143,11.143,0,0,0-1.294,3.891,26.158,26.158,0,0,0-.249,4.29,31.4,31.4,0,0,0,.249,3.591,7.593,7.593,0,0,0,2.637,4.689q2.14,1.8,7.513,1.8Z" transform="translate(856 346.284)" />
    <path id="패스_4" data-name="패스 4" d="M30.7,17.088H18.1V80.912H30.7V89.9H6.5V8.1H30.7Zm48.2,9.888a33.979,33.979,0,0,1-1.65,10.438,54.355,54.355,0,0,1-4.4,10.038,75.638,75.638,0,0,1-6.2,9.339q-3.45,4.445-7.05,8.24a126.169,126.169,0,0,1-9.1,8.79q-4.8,4.195-10.2,8.19V66.03A84.226,84.226,0,0,0,50,56.841,86.742,86.742,0,0,0,57.85,46.8a56.1,56.1,0,0,0,5.3-9.838,26.959,26.959,0,0,0,2.15-8.59H37.7V15.989H78.9Zm36.8,21.075H103.2V90.2H90.1V8.2h13.1V35.167h12.5ZM202,71.523q-2.4-.9-4.65-2t-4.45-2.4a62.2,62.2,0,0,1-7.55-5.344,26.275,26.275,0,0,1-6.25-7.341,27.619,27.619,0,0,1-6.45,7.641,54.473,54.473,0,0,1-7.55,5.244,46.4,46.4,0,0,1-4.4,2.3q-2.2,1-4.5,1.8V60.037a36.322,36.322,0,0,0,8.85-6.792A25.36,25.36,0,0,0,169.75,46a24.8,24.8,0,0,0,1.85-7.591,76.238,76.238,0,0,0,.2-7.841H157V19.985h14.8V10.6h14.1v9.389h15.8V30.572H186a67.743,67.743,0,0,0,.25,7.841,24.465,24.465,0,0,0,1.95,7.541,26.062,26.062,0,0,0,4.8,7.191,38,38,0,0,0,8.8,6.792ZM209.1,91.1V7.1h13.2v84Zm47.4-1.2H232.3V80.912h12.6V17.088H232.3V8.1h24.2Z" transform="translate(827.5 446.184)" />
    <path id="패스_3" data-name="패스 3" d="M61.966,18.988a25.191,25.191,0,0,1,10.194,2.1,26.687,26.687,0,0,1,8.495,5.886,28,28,0,0,1,5.8,8.779,26.99,26.99,0,0,1,2.1,10.575V73.857a27.177,27.177,0,0,1-7.895,19.254A29,29,0,0,1,72.16,99a24.212,24.212,0,0,1-10.194,2.195H36.383A25.579,25.579,0,0,1,25.989,99a29.543,29.543,0,0,1-8.794-5.886,27.362,27.362,0,0,1-6-8.679A25.93,25.93,0,0,1,9,73.857V46.323a25.93,25.93,0,0,1,2.2-10.575,28.568,28.568,0,0,1,6-8.779,27.225,27.225,0,0,1,8.794-5.886,26.621,26.621,0,0,1,10.393-2.1Zm57.763,98.166a87.913,87.913,0,0,0,5.2,20.152,139.907,139.907,0,0,0,8.595,18.257,151.628,151.628,0,0,0,9.794,15.264q5,6.784,8.794,11.173H125.926q-1.8-2.195-4.6-6.285t-5.6-8.879q-2.8-4.789-5-9.577a41.522,41.522,0,0,1-3-8.58q-.8,2.793-1.8,5.587l-2,5.587q-2,4.988-4.9,10.874A73.029,73.029,0,0,1,92.147,182H66.164q2-2.195,3.3-3.791t2.4-3.093q1.1-1.5,2.1-2.993t2.4-3.691q-2.8-3.392-5.6-6.983t-5-6.584a40.239,40.239,0,0,1-2.6-3.292q-1.2-1.7-2.4-3.292A110.189,110.189,0,0,1,41.979,182H14a111.854,111.854,0,0,0,13.491-16.76,147.235,147.235,0,0,0,10.094-17.857,162.979,162.979,0,0,0,6.9-16.76,121.567,121.567,0,0,0,3.9-13.468H72.759a69.77,69.77,0,0,0,5.2,17.558,121.423,121.423,0,0,0,8.195,15.563A123.546,123.546,0,0,0,90.448,138q1.7-5.886,2.9-10.475.6-2.793,1.2-5.287t1-5.088Zm-.2-8.779V14h25.184v94.375ZM64.964,51.511a10.889,10.889,0,0,0-3.3-8.181,11.446,11.446,0,0,0-8.295-3.192H44.777a13.261,13.261,0,0,0-8.794,3.192,10.207,10.207,0,0,0-3.8,8.181V68.47a10.5,10.5,0,0,0,3.8,8.28,13.022,13.022,0,0,0,8.794,3.292h8.595A11.266,11.266,0,0,0,64.964,68.47Zm178.886.8a82.934,82.934,0,0,1-4.3,26.437,129.542,129.542,0,0,1-10.993,24.342,163.77,163.77,0,0,1-14.891,21.449,230.6,230.6,0,0,1-16.19,17.857q-7.995,7.881-14.691,13.368t-10.493,8.28v-33.52a147.668,147.668,0,0,0,30.98-37.81,105.331,105.331,0,0,0,8.694-19.454,76.7,76.7,0,0,0,3.7-18.356H166.7V29.164H243.85ZM286.823,14V182H263.238V103.587H240.652V77.05h22.586V14ZM323,182H299.415V14H323Z" transform="translate(1163 345.284)" />
    <g id="그룹_1" data-name="그룹 1" transform="translate(1055.435 327.284)">
      <path id="사각형_1" data-name="사각형 1" d="M10,0H23a1,1,0,0,1,1,1V39a1,1,0,0,1-1,1H10A10,10,0,0,1,0,30V10A10,10,0,0,1,10,0Z" transform="translate(28.192)" />
      <rect id="사각형_2" data-name="사각형 2" width="20" height="8" rx="4" transform="translate(46.192 7)" />
      <rect id="사각형_3" data-name="사각형 3" width="20" height="8" rx="4" transform="translate(46.192 25)" />
    </g>
    <path id="패스_2" data-name="패스 2" d="M1051.614,447.925h7.811s-1.462-20.792-1.654-36.394,3.463-43.337,10.2-50.657,10.388-9.053,17.121-10.016,8.657-3.467,8.657-3.467l-6.541-3.467h-3.655l-7.7,2.119s-9.234,3.274-13.851,11.171c-2.775,4.746-5.116,8.552-7.118,15.409-2.116,7.512-2.234,10.052-3.27,16.95-2.6,17.287-1.731,28.506-1.731,36.789S1051.614,447.925,1051.614,447.925Z"/>
  </g>
</svg>
