<svg xmlns="http://www.w3.org/2000/svg" width="154.677" height="205.493" viewBox="0 0 154.677 205.493">
  <g id="그룹_310" data-name="그룹 310" transform="translate(-3156.496 -1207.664)">
    <path id="패스_135" data-name="패스 135" d="M3164.444,1307.327s-10.27-18.142-3.766-45.527,26.7-40.393,26.7-40.393,17.115-13.008,34.573-11.639,17.458,3.765,24.3,6.846,9.585,2.4,17.8,9.242,11.639,22.593,11.639,22.593,5.135,16.431,5.135,29.1-4.792,28.412-7.188,32.52-4.792,7.531-4.792,7.531" transform="translate(0 0)" fill="none"  stroke-linecap="round" stroke-width="4"/>
    <path id="패스_136" data-name="패스 136" d="M3185.4,1410.444s5.53,12.639,24.752,17.906,32.388-2.37,32.388-2.37,9.874-3.752,16.062-5.793,4.476-.79,7.636-2.107a16.76,16.76,0,0,0,5-3.16" transform="translate(-11.715 -87.503)" fill="none"  stroke-linecap="round" stroke-width="4"/>
    <path id="패스_137" data-name="패스 137" d="M3232.442,1329.325s-1.58.79-2.633-1.317-2.37-10.006,1.317-14.219,6.583-4.477,11.849-4.213,6.32,4.213,6.056,7.373-1.317,6.583-4.476,11.059-6.846,2.9-6.846,2.9" transform="translate(-30.581 -43.511)" fill="none"  stroke-linecap="round" stroke-width="4"/>
    <path id="패스_138" data-name="패스 138" d="M3326.179,1306.555a38.537,38.537,0,0,1,4.207,8.881c1.247,4.363,1.87,11.842,1.247,14.334s-4.051,4.674-4.051,4.674" transform="translate(-73.069 -42.226)" fill="none"  stroke-linecap="round" stroke-width="4"/>
    <path id="패스_139" data-name="패스 139" d="M3266.588,1237.88a2.431,2.431,0,0,0-2.96-1.558,13.058,13.058,0,0,0-5.921,4.363c-1.714,2.025-5.765,8.1-6.855,11.374s-2.8,10.751-2.337,12.309-.156,4.363,2.337,5.3" transform="matrix(0.995, 0.105, -0.105, 0.995, 109.626, -345.207)" fill="none"  stroke-linecap="round" stroke-width="4"/>
    <path id="패스_140" data-name="패스 140" d="M3283.925,1248.284a13.52,13.52,0,0,1,6.7,6.232c2.181,4.518,2.337,11.062,2.337,11.062" transform="translate(-54.654 -16.83)" fill="none"  stroke-linecap="round" stroke-width="4"/>
    <path id="패스_141" data-name="패스 141" d="M3218.492,1301.389a10.4,10.4,0,0,1-3.9.779c-2.181,0-4.519-3.739-5.453-7.011s-1.247-13.711-.779-15.113" transform="translate(-208.947 606.18) rotate(-11)" fill="none"  stroke-linecap="round" stroke-width="4"/>
    <path id="패스_142" data-name="패스 142" d="M3207.06,1340.06a62.285,62.285,0,0,0-8.725-1.246c-3.74-.156-7.479,0-7.479,0" transform="matrix(0.978, -0.208, 0.208, 0.978, -222.665, 638.115)" fill="none"  stroke-linecap="round" stroke-width="4"/>
    <path id="패스_143" data-name="패스 143" d="M3223.514,1358.109s-1.557-.935-4.206,2.493-2.493,15.893-2.493,18.385-.156,7.635,2.493,9.349,1.558.779,4.206,1.246" transform="matrix(0.995, 0.105, -0.105, 0.995, 135.835, -393.716)" fill="none"  stroke-linecap="round" stroke-width="4"/>
    <path id="패스_144" data-name="패스 144" d="M3256.309,1364.634s4.861,18.23,11.14,23.091,5.893,3.714,5.893,3.714" transform="matrix(0.995, 0.105, -0.105, 0.995, 119.317, -401.256)" fill="none"  stroke-linecap="round" stroke-width="4"/>
    <path id="패스_145" data-name="패스 145" d="M3281.947,1347.336s-2.637-2.156,3.6.84,12.944,8.15,17.139,10.187,7.191,1.318,7.191,1.318" transform="translate(-193.898 352.052) rotate(-7)" fill="none"  stroke-linecap="round" stroke-width="4"/>
    <path id="패스_146" data-name="패스 146" d="M3279.179,1302.007s-2.6.24-1.641-2.637,5.034-6.832,8.03-9.109,9.229-4.794,11.506-4.794,5.873-.6,7.91,0" transform="translate(-184.897 377.814) rotate(-7)" fill="none"  stroke-linecap="round" stroke-width="4"/>
    <path id="패스_147" data-name="패스 147" d="M3328.9,1288.3a67.41,67.41,0,0,1,19.177-1.318c9.348.959,12.1,2.157,15.7,7.191s3.386,6.892,4.315,13.3-.12,9.948-1.918,13.663-3.6,3.715-8.629,4.554a25.681,25.681,0,0,0-8.869,2.757c-2.517,1.2-9.948.719-9.948.719a47.046,47.046,0,0,0-6.712-.719" transform="translate(-74.255 -33.591)" fill="none"  stroke-linecap="round" stroke-width="4"/>
    <path id="패스_148" data-name="패스 148" d="M3286.313,1445.465s-.568,15.583,0,21.971.88,14.49,1.348,15.581" transform="translate(-55.585 -102.765)" fill="none"  stroke-linecap="round" stroke-width="4"/>
    <path id="패스_149" data-name="패스 149" d="M3309.61,1443.536s2.181,13.867,2.337,19.009.312,11.063.935,12.621a14.833,14.833,0,0,0,1.247,2.493" transform="translate(-65.848 -101.925)" fill="none"  stroke-linecap="round" stroke-width="4"/>
    <path id="패스_150" data-name="패스 150" d="M3240.041,1485.983a49.579,49.579,0,0,0-7.089,1.62c-2.025.81-13.166,3.241-13.166,3.241s-8.3,2.026-10.735,3.241a92.556,92.556,0,0,0-9.925,5.064c-5.064,3.038-5.874,2.633-9.723,8.3s-3.646,7.95-4.861,10.938.405,6.887,2.431,7.292,3.241,2.836,12.153,3.646,9.317,1.215,18.432,1.418,12.963,1.013,19.04.81,12.153-3.443,15.191-3.646,6.077-2.228,14.786-2.228,20.052-.2,20.66,0" transform="translate(-11.158 -120.424)" fill="none"  stroke-linecap="round" stroke-width="4"/>
    <path id="패스_151" data-name="패스 151" d="M3322.37,1478.456s19.85-.843,28.357,0,11.748.843,18.635,4.084,10.33,5.266,11.14,8.71-3.646,8.3-4.861,9.925-14.179,12.356-23.293,14.786a53.62,53.62,0,0,1-17.824,1.418" transform="translate(-71.409 -116.98)" fill="none"  stroke-linecap="round" stroke-width="4"/>
  </g>
</svg>
